# xmcd
#
# Track frame offsets:
#	150
#	12942
#	29717
#	47407
#	64423
#	79813
#	97099
#	114548
#	128506
#	144415
#	160250
#	172821
#	190799
#
# Disc length: 2774 seconds
#
# Revision: 0
# Processed by: cddbd v1.5.2PL0 Copyright (c) Steve Scherf et al.
# Submitted via: audiograbber 1.83.01
#
DISCID=a80ad40d
DTITLE=Keith Urban - Ripcord
DYEAR=2016
DGENRE=Country
TTITLE0=Gone Tomorrow (Here Today)
TTITLE1=John Cougar, John Deere, John 3:16
TTITLE2=Wasted Time
TTITLE3=Habit of You
TTITLE4=Sun Don't Let Me Down (feat. Nile Rodgers and Pitbull)
TTITLE5=Gettin' in the Way
TTITLE6=Blue Ain't Your Color
TTITLE7=The Fighter (feat. Carrie Underwood)
TTITLE8=Break on Me
TTITLE9=Boy Gets a Truck
TTITLE10=Your Body
TTITLE11=That Could Still Be Us
TTITLE12=Worry 'Bout Nothin'
EXTD=
EXTT0=
EXTT1=
EXTT2=
EXTT3=
EXTT4=
EXTT5=
EXTT6=
EXTT7=
EXTT8=
EXTT9=
EXTT10=
EXTT11=
EXTT12=
PLAYORDER=
